HIERARCHY
ROOT hip
{
  OFFSET 5.51535 103.731 -2.80141
  CHANNELS 6 Xposition Yposition Zposition Zrotation Xrotation Yrotation
  JOINT abdomen
  {
    OFFSET 0 -1.186 -1.5018
    CHANNELS 6 Xposition Yposition Zposition Zrotation Xrotation Yrotation
    JOINT abdomen2
    {
      OFFSET 0 9.964 0.2134
      CHANNELS 6 Xposition Yposition Zposition Zrotation Xrotation Yrotation
      JOINT chest
      {
        OFFSET 0 13.134 -3.2573
        CHANNELS 6 Xposition Yposition Zposition Zrotation Xrotation Yrotation
        JOINT neck
        {
          OFFSET 0 20.686 -1.6905
          CHANNELS 6 Xposition Yposition Zposition Zrotation Xrotation Yrotation
          JOINT head
          {
            OFFSET 0 7.23801 -0.1237
            CHANNELS 6 Xposition Yposition Zposition Zrotation Xrotation Yrotation
            End Site
            {
              OFFSET 0 0 0
            }
          }
        }
        JOINT lCollar
        {
          OFFSET 1.7069 20.075 5.0056
          CHANNELS 6 Xposition Yposition Zposition Zrotation Xrotation Yrotation
          JOINT lShldr
          {
            OFFSET 13.6458 -0.0470195 -4.849
            CHANNELS 6 Xposition Yposition Zposition Zrotation Xrotation Yrotation
            JOINT lForeArm
            {
              OFFSET 28.3255 -0.97589 2.2888
              CHANNELS 6 Xposition Yposition Zposition Zrotation Xrotation Yrotation
              JOINT lHand
              {
                OFFSET 22.1583 -0.529998 10.8316
                CHANNELS 6 Xposition Yposition Zposition Zrotation Xrotation Yrotation
                JOINT lThumb1
                {
                  OFFSET 0.786 0.111997 2.5817
                  CHANNELS 6 Xposition Yposition Zposition Zrotation Xrotation Yrotation
                  JOINT lThumb2
                  {
                    OFFSET 0.360097 -0.877999 4.2331
                    CHANNELS 6 Xposition Yposition Zposition Zrotation Xrotation Yrotation
                    JOINT lThumb2_End
                    {
                      OFFSET 1.8127 -1.21601 2.2227
                      CHANNELS 6 Xposition Yposition Zposition Zrotation Xrotation Yrotation
                      End Site
                      {
                        OFFSET 0.0180981 -0.012195 0.0222007
                      }
                    }
                  }
                }
                JOINT lCarpal1
                {
                  OFFSET 0.9571 1.114 1.7695
                  CHANNELS 6 Xposition Yposition Zposition Zrotation Xrotation Yrotation
                  JOINT lIndex1
                  {
                    OFFSET 4.12461 0.486992 4.1451
                    CHANNELS 6 Xposition Yposition Zposition Zrotation Xrotation Yrotation
                    JOINT lIndex2
                    {
                      OFFSET 3.4052 -1.45401 2.7682
                      CHANNELS 6 Xposition Yposition Zposition Zrotation Xrotation Yrotation
                      JOINT lIndex2_End
                      {
                        OFFSET 1.45309 -1.79499 1.2713
                        CHANNELS 6 Xposition Yposition Zposition Zrotation Xrotation Yrotation
                        End Site
                        {
                          OFFSET 0.0144979 -0.0179083 0.0126995
                        }
                      }
                    }
                  }
                  JOINT lMid1
                  {
                    OFFSET 5.6954 0.209987 2.1184
                    CHANNELS 6 Xposition Yposition Zposition Zrotation Xrotation Yrotation
                    JOINT lMid2
                    {
                      OFFSET 3.9766 -1.53999 2.3863
                      CHANNELS 6 Xposition Yposition Zposition Zrotation Xrotation Yrotation
                      JOINT lMid2_End
                      {
                        OFFSET 1.4042 -1.926 1.125
                        CHANNELS 6 Xposition Yposition Zposition Zrotation Xrotation Yrotation
                        End Site
                        {
                          OFFSET 0.013999 -0.0193044 0.011301
                        }
                      }
                    }
                  }
                }
                JOINT lCarpal2
                {
                  OFFSET 2.0956 0.66 -0.3894
                  CHANNELS 6 Xposition Yposition Zposition Zrotation Xrotation Yrotation
                  JOINT lRing1
                  {
                    OFFSET 5.0395 -0.090013 2.4971
                    CHANNELS 6 Xposition Yposition Zposition Zrotation Xrotation Yrotation
                    JOINT lRing2
                    {
                      OFFSET 3.7921 -1.55199 1.4806
                      CHANNELS 6 Xposition Yposition Zposition Zrotation Xrotation Yrotation
                      JOINT lRing2_End
                      {
                        OFFSET 1.4655 -1.808 0.9609
                        CHANNELS 6 Xposition Yposition Zposition Zrotation Xrotation Yrotation
                        End Site
                        {
                          OFFSET 0.0147015 -0.0181014 0.00959957
                        }
                      }
                    }
                  }
                  JOINT lPinky1
                  {
                    OFFSET 4.9141 -1.269 0.3591
                    CHANNELS 6 Xposition Yposition Zposition Zrotation Xrotation Yrotation
                    JOINT lPinky2
                    {
                      OFFSET 3.1477 -1.685 0.8462
                      CHANNELS 6 Xposition Yposition Zposition Zrotation Xrotation Yrotation
                      JOINT lPinky2_End
                      {
                        OFFSET 0.805498 -1.58501 0.795499
                        CHANNELS 6 Xposition Yposition Zposition Zrotation Xrotation Yrotation
                        End Site
                        {
                          OFFSET 0.00809703 -0.0157944 0.00799848
                        }
                      }
                    }
                  }
                }
              }
            }
          }
        }
        JOINT rCollar
        {
          OFFSET -1.7069 20.075 5.0056
          CHANNELS 6 Xposition Yposition Zposition Zrotation Xrotation Yrotation
          JOINT rShldr
          {
            OFFSET -13.6458 -0.0470107 -4.849
            CHANNELS 6 Xposition Yposition Zposition Zrotation Xrotation Yrotation
            JOINT rForeArm
            {
              OFFSET -28.3255 -0.975895 2.2888
              CHANNELS 6 Xposition Yposition Zposition Zrotation Xrotation Yrotation
              JOINT rHand
              {
                OFFSET -22.1583 -0.530007 10.8316
                CHANNELS 6 Xposition Yposition Zposition Zrotation Xrotation Yrotation
                JOINT rThumb1
                {
                  OFFSET -0.785997 0.112005 2.5817
                  CHANNELS 6 Xposition Yposition Zposition Zrotation Xrotation Yrotation
                  JOINT rThumb2
                  {
                    OFFSET -0.360106 -0.877994 4.2331
                    CHANNELS 6 Xposition Yposition Zposition Zrotation Xrotation Yrotation
                    JOINT rThumb2_End
                    {
                      OFFSET -1.8127 -1.216 2.2227
                      CHANNELS 6 Xposition Yposition Zposition Zrotation Xrotation Yrotation
                      End Site
                      {
                        OFFSET -0.0180972 -0.0121973 0.0222005
                      }
                    }
                  }
                }
                JOINT rCarpal1
                {
                  OFFSET -0.9571 1.114 1.7695
                  CHANNELS 6 Xposition Yposition Zposition Zrotation Xrotation Yrotation
                  JOINT rIndex1
                  {
                    OFFSET -4.1246 0.487011 4.1451
                    CHANNELS 6 Xposition Yposition Zposition Zrotation Xrotation Yrotation
                    JOINT rIndex2
                    {
                      OFFSET -3.4052 -1.45401 2.7682
                      CHANNELS 6 Xposition Yposition Zposition Zrotation Xrotation Yrotation
                      JOINT rIndex2_End
                      {
                        OFFSET -1.4531 -1.795 1.2713
                        CHANNELS 6 Xposition Yposition Zposition Zrotation Xrotation Yrotation
                        End Site
                        {
                          OFFSET -0.0145077 -0.0180048 0.0127017
                        }
                      }
                    }
                  }
                  JOINT rMid1
                  {
                    OFFSET -5.6954 0.210002 2.1184
                    CHANNELS 6 Xposition Yposition Zposition Zrotation Xrotation Yrotation
                    JOINT rMid2
                    {
                      OFFSET -3.9766 -1.54 2.3863
                      CHANNELS 6 Xposition Yposition Zposition Zrotation Xrotation Yrotation
                      JOINT rMid2_End
                      {
                        OFFSET -1.4042 -1.926 1.125
                        CHANNELS 6 Xposition Yposition Zposition Zrotation Xrotation Yrotation
                        End Site
                        {
                          OFFSET -0.0139948 -0.0192916 0.0112994
                        }
                      }
                    }
                  }
                }
                JOINT rCarpal2
                {
                  OFFSET -2.0956 0.66 -0.3894
                  CHANNELS 6 Xposition Yposition Zposition Zrotation Xrotation Yrotation
                  JOINT rRing1
                  {
                    OFFSET -5.03951 -0.0899879 2.4971
                    CHANNELS 6 Xposition Yposition Zposition Zrotation Xrotation Yrotation
                    JOINT rRing2
                    {
                      OFFSET -3.7921 -1.55201 1.4806
                      CHANNELS 6 Xposition Yposition Zposition Zrotation Xrotation Yrotation
                      JOINT rRing2_End
                      {
                        OFFSET -1.4655 -1.808 0.960901
                        CHANNELS 6 Xposition Yposition Zposition Zrotation Xrotation Yrotation
                        End Site
                        {
                          OFFSET -0.0146934 -0.0180999 0.00959832
                        }
                      }
                    }
                  }
                  JOINT rPinky1
                  {
                    OFFSET -4.91411 -1.26899 0.359202
                    CHANNELS 6 Xposition Yposition Zposition Zrotation Xrotation Yrotation
                    JOINT rPinky2
                    {
                      OFFSET -3.14769 -1.68501 0.846199
                      CHANNELS 6 Xposition Yposition Zposition Zrotation Xrotation Yrotation
                      JOINT rPinky2_End
                      {
                        OFFSET -0.805498 -1.585 0.7955
                        CHANNELS 6 Xposition Yposition Zposition Zrotation Xrotation Yrotation
                        End Site
                        {
                          OFFSET -0.00810035 -0.0158035 0.00800029
                        }
                      }
                    }
                  }
                }
              }
            }
          }
        }
      }
    }
  }
  JOINT lThigh
  {
    OFFSET 8.367 -8.2066 0.5982
    CHANNELS 6 Xposition Yposition Zposition Zrotation Xrotation Yrotation
    JOINT lShin
    {
      OFFSET 2.1923 -43.463 -0.4932
      CHANNELS 6 Xposition Yposition Zposition Zrotation Xrotation Yrotation
      JOINT lFoot
      {
        OFFSET 0.733301 -45.8593 -2.6451
        CHANNELS 6 Xposition Yposition Zposition Zrotation Xrotation Yrotation
        End Site
        {
          OFFSET 2.6618 -4.2699 12.3931
        }
      }
    }
  }
  JOINT rThigh
  {
    OFFSET -8.367 -8.2066 0.5982
    CHANNELS 6 Xposition Yposition Zposition Zrotation Xrotation Yrotation
    JOINT rShin
    {
      OFFSET -2.1923 -43.463 -0.4931
      CHANNELS 6 Xposition Yposition Zposition Zrotation Xrotation Yrotation
      JOINT rFoot
      {
        OFFSET -0.733299 -45.8593 -2.6451
        CHANNELS 6 Xposition Yposition Zposition Zrotation Xrotation Yrotation
        End Site
        {
          OFFSET -2.6618 -4.2699 12.3931
        }
      }
    }
  }
}
MOTION
Frames:	4
Frame Time:	0.0333333
-7.37388 102.33 -4.68801 3.81017 -4.67291 -3.55562 -3.67282e-007 -1.186 -1.5018 -2.05985 0.358262 -0.570834 1.25184e-007 9.964 0.2134 -4.11615 0.736815 -1.12845 -3.38311e-007 13.134 -3.2573 -4.11615 0.736815 -1.12845 1.69091e-005 20.686 -1.69051 3.54273 -0.0607858 -11.0289 2.37463e-006 7.23801 -0.123701 -2.38751 2.32488 -13.3078 1.7069 20.075 5.0056 3.14492 0.360771 3.39543 13.6458 -0.0470102 -4.84901 -82.9641 -4.9663 11.4453 28.3255 -0.975891 2.2888 -29.8788 10.0939 -91.5111 22.1583 -0.529986 10.8316 -14.3365 -43.0077 -17.7719 0.786005 0.111995 2.5817 -1.44059 -0.139343 -2.63688 0.360097 -0.877999 4.2331 -1.44114 -0.13951 -2.63676 1.8127 -1.21601 2.2227 -1.44083 -0.139444 -2.63657 0.9571 1.114 1.7695 -1.59028e-015 3.57812e-015 3.97569e-016 4.12461 0.486994 4.14511 21.6018 -11.3139 -7.05119 3.4052 -1.454 2.7682 4.78059 -2.21512 -1.87799 1.4531 -1.79499 1.2713 4.77947 -2.21488 -1.87806 5.6954 0.209991 2.1184 27.5495 -16.2975 -8.12567 3.9766 -1.53999 2.3863 4.68928 -2.40696 -1.86791 1.4042 -1.926 1.125 4.68942 -2.40682 -1.86818 2.0956 0.66 -0.3894 -1.59028e-015 3.57812e-015 3.97569e-016 5.0395 -0.0900139 2.4971 26.9234 -18.2416 -6.86216 3.7921 -1.55199 1.4806 4.53334 -2.52343 -2.07617 1.4655 -1.808 0.9609 4.53364 -2.52362 -2.07605 4.9141 -1.269 0.359101 29.0363 -20.5266 0.342566 3.1477 -1.685 0.846201 4.48038 -2.66339 -2.01547 0.8055 -1.585 0.7955 4.47985 -2.66327 -2.01522 -1.7069 20.075 5.0056 3.15803 -0.052034 3.41334 -13.6458 -0.0470076 -4.84901 84.399 -7.46147 -12.6759 -28.3255 -0.975896 2.2888 3.24259 -11.2266 13.0218 -22.1583 -0.530004 10.8316 -7.38279 3.72704 5.80488 -0.786003 0.112005 2.5817 -0.888019 0.807402 -2.7502 -0.360107 -0.877994 4.2331 -0.888524 0.807536 -2.75019 -1.81269 -1.216 2.2227 -0.888249 0.80741 -2.74996 -0.9571 1.114 1.7695 1.39149e-015 0 7.95139e-016 -4.1246 0.487011 4.1451 5.30226 1.72908 -0.822985 -3.4052 -1.45401 2.7682 5.30085 1.72855 -0.822718 -1.4531 -1.795 1.2713 5.29971 1.72838 -0.822984 -5.69541 0.210004 2.1184 5.23422 1.92975 -0.805801 -3.9766 -1.54 2.3863 5.23482 1.93041 -0.806091 -1.4042 -1.926 1.125 5.23498 1.93018 -0.806312 -2.0956 0.66 -0.3894 1.39149e-015 0 7.95139e-016 -5.03951 -0.0899872 2.4971 5.14132 2.08261 -1.01771 -3.7921 -1.552 1.4806 5.1432 2.0836 -1.01876 -1.4655 -1.808 0.960901 5.14349 2.08377 -1.01855 -4.91411 -1.26899 0.359203 5.09464 2.224 -0.951008 -3.1477 -1.68501 0.846199 5.097 2.22497 -0.951685 -0.805502 -1.585 0.7955 5.09636 2.22487 -0.951573 8.367 -8.2066 0.598199 -11.523 8.04097 -5.17248 2.1923 -43.4631 -0.493199 0.128096 0.682347 0.538809 0.7333 -45.8593 -2.6451 7.51696 -3.68844 10.3754 -8.367 -8.20661 0.598199 -12.0236 -8.17803 -3.11748 -2.1923 -43.463 -0.4931 0.778544 9.3931 -0.0336813 -0.733301 -45.8593 -2.6451 9.59395 2.75481 -6.90215 
-7.37284 102.325 -4.65596 3.79864 -4.68323 -3.55633 -2.77241e-007 -1.186 -1.5018 -2.05459 0.333636 -0.585609 -1.43198e-007 9.96399 0.2134 -4.10579 0.688079 -1.15891 1.86731e-007 13.134 -3.2573 -4.10579 0.688078 -1.15891 1.64305e-006 20.686 -1.6905 3.55435 0.0372842 -10.9986 9.86709e-007 7.23801 -0.1237 -2.38865 2.2183 -13.2693 1.7069 20.075 5.0056 3.17667 0.355986 3.36091 13.6458 -0.0470073 -4.849 -83.0123 -4.98487 11.4166 28.3255 -0.975896 2.2888 -29.8804 10.0568 -91.5543 22.1583 -0.52998 10.8316 -14.3908 -43.0246 -17.7755 0.786004 0.111998 2.5817 -1.44059 -0.139342 -2.63688 0.360098 -0.877998 4.2331 -1.44113 -0.139514 -2.63674 1.8127 -1.21601 2.2227 -1.44083 -0.139447 -2.63659 0.9571 1.114 1.7695 -1.59028e-015 -2.23633e-016 -3.97569e-016 4.12461 0.486989 4.1451 21.6018 -11.3139 -7.05118 3.4052 -1.454 2.7682 4.78059 -2.21512 -1.878 1.4531 -1.79499 1.2713 4.77948 -2.21488 -1.87804 5.69541 0.209989 2.1184 27.5494 -16.2975 -8.12566 3.9766 -1.54 2.3863 4.68927 -2.40694 -1.8679 1.4042 -1.926 1.125 4.68941 -2.40682 -1.86819 2.0956 0.66 -0.3894 -1.59028e-015 -2.23633e-016 -3.97569e-016 5.0395 -0.0900092 2.4971 26.9234 -18.2416 -6.86215 3.7921 -1.552 1.4806 4.53333 -2.52344 -2.07615 1.4655 -1.808 0.9609 4.53364 -2.52363 -2.07605 4.9141 -1.26901 0.359102 29.0363 -20.5266 0.342588 3.1477 -1.68501 0.8462 4.48037 -2.66339 -2.01545 0.805498 -1.58501 0.7955 4.47985 -2.66328 -2.01521 -1.7069 20.075 5.0056 3.22477 -0.052523 3.39912 -13.6458 -0.0470033 -4.849 84.2958 -7.44571 -12.6054 -28.3255 -0.975891 2.2888 3.25613 -11.1974 13.0451 -22.1583 -0.530008 10.8316 -7.37433 3.73619 5.74081 -0.785998 0.112005 2.5817 -0.887998 0.807387 -2.75022 -0.360107 -0.877994 4.2331 -0.888527 0.807539 -2.75019 -1.81269 -1.216 2.2227 -0.888266 0.807413 -2.74995 -0.9571 1.114 1.7695 5.96354e-016 3.18055e-015 -3.18055e-015 -4.12461 0.487009 4.1451 5.30227 1.72909 -0.822999 -3.4052 -1.45401 2.7682 5.30086 1.72856 -0.822712 -1.4531 -1.795 1.2713 5.2997 1.72837 -0.822985 -5.6954 0.210001 2.1184 5.23422 1.92975 -0.805804 -3.9766 -1.54 2.3863 5.23482 1.9304 -0.806096 -1.4042 -1.926 1.125 5.235 1.93019 -0.806301 -2.0956 0.66 -0.3894 5.96354e-016 3.18055e-015 -3.18055e-015 -5.03951 -0.0899869 2.4971 5.14131 2.08263 -1.01771 -3.7921 -1.552 1.4806 5.14318 2.08359 -1.01875 -1.4655 -1.808 0.960901 5.14351 2.08376 -1.01854 -4.91411 -1.26899 0.359201 5.09464 2.22402 -0.951003 -3.1477 -1.68501 0.846198 5.09699 2.22496 -0.951682 -0.805502 -1.585 0.7955 5.09636 2.22487 -0.951569 8.367 -8.2066 0.598201 -11.5102 8.06275 -5.09649 2.1923 -43.463 -0.4932 0.126992 0.706162 0.535147 0.7333 -45.8593 -2.64511 7.53799 -3.78782 10.3117 -8.367 -8.20661 0.598199 -12.0198 -8.18518 -3.10947 -2.1923 -43.463 -0.493103 0.788373 9.4697 -0.0547967 -0.733303 -45.8593 -2.6451 9.59104 2.69769 -6.88733 
-7.37148 102.319 -4.63408 3.78629 -4.68831 -3.53963 -6.42083e-007 -1.186 -1.5018 -2.05169 0.312016 -0.604285 2.01456e-007 9.964 0.2134 -4.10007 0.645464 -1.19706 -1.28867e-007 13.134 -3.2573 -4.10007 0.645464 -1.19706 2.21654e-005 20.6861 -1.69052 3.586 0.141978 -10.9843 4.24767e-006 7.238 -0.123701 -2.39614 2.0868 -13.2528 1.7069 20.075 5.0056 3.21395 0.351653 3.33024 13.6458 -0.0470035 -4.849 -83.0841 -4.99905 11.3739 28.3255 -0.975896 2.2888 -29.8836 10.0087 -91.5979 22.1583 -0.529987 10.8316 -14.4201 -42.9924 -17.7679 0.786003 0.111994 2.5817 -1.44058 -0.139344 -2.6369 0.360098 -0.878001 4.2331 -1.44114 -0.139517 -2.63676 1.8127 -1.21602 2.2227 -1.44083 -0.139459 -2.63656 0.9571 1.114 1.7695 1.59028e-015 -2.75814e-015 -3.97569e-016 4.1246 0.486991 4.1451 21.6018 -11.3139 -7.05118 3.4052 -1.45401 2.7682 4.78059 -2.21513 -1.878 1.4531 -1.795 1.2713 4.77947 -2.21488 -1.87805 5.6954 0.209989 2.1184 27.5495 -16.2976 -8.12568 3.9766 -1.53999 2.3863 4.68927 -2.40695 -1.8679 1.4042 -1.926 1.125 4.68942 -2.40682 -1.86818 2.0956 0.66 -0.3894 1.59028e-015 -2.75814e-015 -3.97569e-016 5.0395 -0.0900128 2.4971 26.9234 -18.2416 -6.86218 3.7921 -1.55199 1.4806 4.53333 -2.52345 -2.07614 1.4655 -1.808 0.960899 4.53364 -2.52362 -2.07604 4.9141 -1.269 0.359102 29.0363 -20.5267 0.342577 3.1477 -1.685 0.846201 4.48038 -2.6634 -2.01545 0.805497 -1.58501 0.7955 4.47984 -2.66328 -2.01522 -1.7069 20.075 5.0056 3.29937 -0.0523388 3.37804 -13.6458 -0.0470137 -4.849 84.181 -7.4292 -12.5162 -28.3255 -0.975885 2.2888 3.26948 -11.1668 13.0738 -22.1583 -0.530014 10.8316 -7.33849 3.72245 5.66583 -0.786001 0.112005 2.5817 -0.888013 0.807365 -2.75021 -0.360104 -0.877994 4.23311 -0.888515 0.807543 -2.75018 -1.81269 -1.216 2.2227 -0.888259 0.807412 -2.74995 -0.9571 1.114 1.7695 2.38542e-015 6.36111e-015 -7.95139e-016 -4.1246 0.487012 4.1451 5.30226 1.72909 -0.822996 -3.4052 -1.45401 2.7682 5.30086 1.72855 -0.822709 -1.4531 -1.795 1.2713 5.29971 1.72838 -0.822989 -5.69541 0.210003 2.1184 5.23423 1.92977 -0.805809 -3.9766 -1.54 2.3863 5.23481 1.9304 -0.806081 -1.4042 -1.926 1.125 5.23502 1.93019 -0.806308 -2.0956 0.66 -0.3894 2.38542e-015 6.36111e-015 -7.95139e-016 -5.03951 -0.0899849 2.4971 5.14131 2.08263 -1.0177 -3.7921 -1.552 1.4806 5.1432 2.0836 -1.01876 -1.4655 -1.808 0.9609 5.14348 2.08377 -1.01853 -4.91411 -1.26899 0.359202 5.09464 2.22403 -0.951011 -3.14769 -1.68501 0.8462 5.09698 2.22497 -0.951677 -0.805497 -1.58499 0.795501 5.09636 2.22487 -0.951563 8.367 -8.2066 0.598201 -11.4987 8.02773 -5.00513 2.1923 -43.463 -0.493201 0.124922 0.820413 0.531065 0.7333 -45.8593 -2.6451 7.56912 -3.94167 10.2206 -8.36701 -8.20661 0.598201 -12.0149 -8.19338 -3.08886 -2.1923 -43.463 -0.4931 0.798186 9.53817 -0.0757999 -0.733302 -45.8593 -2.6451 9.59121 2.64619 -6.8877 
-7.37001 102.312 -4.61379 3.77449 -4.7077 -3.52308 1.25358e-007 -1.186 -1.5018 -2.05129 0.288757 -0.620909 -1.79553e-007 9.964 0.2134 -4.09941 0.599505 -1.2311 7.67983e-008 13.134 -3.2573 -4.09941 0.599509 -1.2311 1.11582e-005 20.686 -1.6905 3.61875 0.209239 -10.9952 1.75637e-006 7.238 -0.1237 -2.41292 2.02982 -13.2722 1.7069 20.075 5.0056 3.24457 0.349989 3.31867 13.6458 -0.0470123 -4.84901 -83.1346 -5.00407 11.3578 28.3255 -0.975895 2.2888 -29.8877 9.96958 -91.6151 22.1583 -0.529984 10.8316 -14.4423 -42.9353 -17.734 0.786004 0.111996 2.5817 -1.44059 -0.139354 -2.63688 0.360098 -0.877999 4.2331 -1.44114 -0.139518 -2.63677 1.8127 -1.21602 2.2227 -1.44084 -0.139463 -2.63657 0.9571 1.114 1.7695 1.59028e-015 1.963e-015 -0 4.1246 0.486994 4.1451 21.6018 -11.3139 -7.05117 3.4052 -1.45401 2.7682 4.78058 -2.21514 -1.878 1.4531 -1.79499 1.2713 4.77948 -2.21489 -1.87804 5.6954 0.209988 2.1184 27.5495 -16.2976 -8.12568 3.9766 -1.53999 2.3863 4.68928 -2.40695 -1.86791 1.4042 -1.92599 1.125 4.68942 -2.40682 -1.86818 2.0956 0.66 -0.3894 1.59028e-015 1.963e-015 -0 5.0395 -0.0900101 2.4971 26.9234 -18.2416 -6.86217 3.7921 -1.55199 1.4806 4.53334 -2.52346 -2.07615 1.4655 -1.808 0.9609 4.53364 -2.52363 -2.07604 4.9141 -1.269 0.359102 29.0363 -20.5266 0.342578 3.1477 -1.685 0.846204 4.48038 -2.66342 -2.01545 0.805497 -1.58501 0.7955 4.47985 -2.66328 -2.01522 -1.7069 20.075 5.0056 3.36135 -0.0521952 3.36736 -13.6458 -0.0470184 -4.84901 84.0919 -7.4334 -12.4788 -28.3255 -0.975889 2.2888 3.26428 -11.1447 13.0665 -22.1583 -0.530005 10.8316 -7.31008 3.69413 5.63722 -0.785998 0.112005 2.5817 -0.887994 0.807305 -2.7502 -0.360108 -0.877993 4.2331 -0.888535 0.80755 -2.75019 -1.81269 -1.216 2.2227 -0.888274 0.807418 -2.74995 -0.9571 1.114 1.7695 -1.78906e-015 3.18055e-015 -7.95139e-016 -4.1246 0.487012 4.1451 5.30226 1.72909 -0.822986 -3.4052 -1.45401 2.7682 5.30084 1.72857 -0.822711 -1.4531 -1.79499 1.2713 5.29972 1.72837 -0.822984 -5.6954 0.209999 2.1184 5.23421 1.9298 -0.805815 -3.9766 -1.54 2.3863 5.23486 1.93042 -0.806082 -1.4042 -1.926 1.125 5.23498 1.9302 -0.806299 -2.0956 0.66 -0.3894 -1.78906e-015 3.18055e-015 -7.95139e-016 -5.03951 -0.0899882 2.4971 5.1413 2.08265 -1.01772 -3.7921 -1.55201 1.4806 5.1432 2.0836 -1.01876 -1.46551 -1.808 0.960901 5.14351 2.08377 -1.01853 -4.91411 -1.26899 0.359202 5.09464 2.22404 -0.951011 -3.1477 -1.68501 0.846199 5.09698 2.22497 -0.95168 -0.805501 -1.585 0.7955 5.09635 2.22489 -0.951554 8.367 -8.2066 0.598199 -11.4933 8.01476 -5.01062 2.1923 -43.463 -0.493203 0.12957 0.917105 0.557347 0.733299 -45.8593 -2.6451 7.56005 -4.0069 10.1947 -8.367 -8.2066 0.5982 -12.0188 -8.20008 -3.09349 -2.1923 -43.4631 -0.493106 0.817392 9.62928 -0.0923002 -0.733301 -45.8593 -2.6451 9.58421 2.58715 -6.8731 
